<svg width="25" height="42" viewBox="0 0 25 42" fill="none" xmlns="http://www.w3.org/2000/svg">
<rect width="25" height="41.9993" rx="4" fill="url(#paint0_linear_8_1236)"/>
<path d="M18.8711 20.9375V22.7539L12.2734 38H8.71094L15.3086 23.5742H6.8125V20.9375H18.8711Z" fill="#FFC800"/>
<path d="M10.5977 4.46875H12.3496V10.1055C12.3496 10.7617 12.209 11.3145 11.9277 11.7637C11.6504 12.2129 11.2656 12.5508 10.7734 12.7773C10.2852 13.0039 9.72266 13.1172 9.08594 13.1172C8.44922 13.1172 7.88281 13.0039 7.38672 12.7773C6.89453 12.5508 6.50781 12.2129 6.22656 11.7637C5.94922 11.3145 5.81055 10.7617 5.81055 10.1055V4.46875H7.56836V10.1055C7.56836 10.4883 7.62891 10.8008 7.75 11.043C7.87109 11.2852 8.04492 11.4629 8.27148 11.5762C8.50195 11.6895 8.77344 11.7461 9.08594 11.7461C9.40625 11.7461 9.67773 11.6895 9.90039 11.5762C10.127 11.4629 10.2988 11.2852 10.416 11.043C10.5371 10.8008 10.5977 10.4883 10.5977 10.1055V4.46875ZM16.873 11.2188L18.8828 4.46875H20.8398L17.8691 13H16.5801L16.873 11.2188ZM15.0215 4.46875L17.0254 11.2188L17.3301 13H16.0293L13.0762 4.46875H15.0215Z" fill="white"/>
<path d="M6.3418 14.8301V18H5.79688V14.8301H6.3418ZM5.75586 13.9893C5.75586 13.9014 5.78223 13.8271 5.83496 13.7666C5.88965 13.7061 5.96973 13.6758 6.0752 13.6758C6.17871 13.6758 6.25781 13.7061 6.3125 13.7666C6.36914 13.8271 6.39746 13.9014 6.39746 13.9893C6.39746 14.0732 6.36914 14.1455 6.3125 14.2061C6.25781 14.2646 6.17871 14.2939 6.0752 14.2939C5.96973 14.2939 5.88965 14.2646 5.83496 14.2061C5.78223 14.1455 5.75586 14.0732 5.75586 13.9893ZM7.75391 15.5068V18H7.21191V14.8301H7.72461L7.75391 15.5068ZM7.625 16.2949L7.39941 16.2861C7.40137 16.0693 7.43359 15.8691 7.49609 15.6855C7.55859 15.5 7.64648 15.3389 7.75977 15.2021C7.87305 15.0654 8.00781 14.96 8.16406 14.8857C8.32227 14.8096 8.49707 14.7715 8.68848 14.7715C8.84473 14.7715 8.98535 14.793 9.11035 14.8359C9.23535 14.877 9.3418 14.9434 9.42969 15.0352C9.51953 15.127 9.58789 15.2461 9.63477 15.3926C9.68164 15.5371 9.70508 15.7139 9.70508 15.9229V18H9.16016V15.917C9.16016 15.751 9.13574 15.6182 9.08691 15.5186C9.03809 15.417 8.9668 15.3438 8.87305 15.2988C8.7793 15.252 8.66406 15.2285 8.52734 15.2285C8.39258 15.2285 8.26953 15.2568 8.1582 15.3135C8.04883 15.3701 7.9541 15.4482 7.87402 15.5479C7.7959 15.6475 7.73438 15.7617 7.68945 15.8906C7.64648 16.0176 7.625 16.1523 7.625 16.2949ZM12.5264 17.3848V13.5H13.0713V18H12.5732L12.5264 17.3848ZM10.3936 16.4502V16.3887C10.3936 16.1465 10.4229 15.9268 10.4814 15.7295C10.542 15.5303 10.627 15.3594 10.7363 15.2168C10.8477 15.0742 10.9795 14.9648 11.1318 14.8887C11.2861 14.8105 11.458 14.7715 11.6475 14.7715C11.8467 14.7715 12.0205 14.8066 12.1689 14.877C12.3193 14.9453 12.4463 15.0459 12.5498 15.1787C12.6553 15.3096 12.7383 15.4678 12.7988 15.6533C12.8594 15.8389 12.9014 16.0488 12.9248 16.2832V16.5527C12.9033 16.7852 12.8613 16.9941 12.7988 17.1797C12.7383 17.3652 12.6553 17.5234 12.5498 17.6543C12.4463 17.7852 12.3193 17.8857 12.1689 17.9561C12.0186 18.0244 11.8428 18.0586 11.6416 18.0586C11.4561 18.0586 11.2861 18.0186 11.1318 17.9385C10.9795 17.8584 10.8477 17.7461 10.7363 17.6016C10.627 17.457 10.542 17.2871 10.4814 17.0918C10.4229 16.8945 10.3936 16.6807 10.3936 16.4502ZM10.9385 16.3887V16.4502C10.9385 16.6084 10.9541 16.7568 10.9854 16.8955C11.0186 17.0342 11.0693 17.1562 11.1377 17.2617C11.2061 17.3672 11.293 17.4502 11.3984 17.5107C11.5039 17.5693 11.6299 17.5986 11.7764 17.5986C11.9561 17.5986 12.1035 17.5605 12.2188 17.4844C12.3359 17.4082 12.4297 17.3076 12.5 17.1826C12.5703 17.0576 12.625 16.9219 12.6641 16.7754V16.0693C12.6406 15.9619 12.6064 15.8584 12.5615 15.7588C12.5186 15.6572 12.4619 15.5674 12.3916 15.4893C12.3232 15.4092 12.2383 15.3457 12.1367 15.2988C12.0371 15.252 11.9189 15.2285 11.7822 15.2285C11.6338 15.2285 11.5059 15.2598 11.3984 15.3223C11.293 15.3828 11.2061 15.4668 11.1377 15.5742C11.0693 15.6797 11.0186 15.8027 10.9854 15.9434C10.9541 16.082 10.9385 16.2305 10.9385 16.3887ZM15.2305 18.0586C15.0098 18.0586 14.8096 18.0215 14.6299 17.9473C14.4521 17.8711 14.2988 17.7646 14.1699 17.6279C14.043 17.4912 13.9453 17.3291 13.877 17.1416C13.8086 16.9541 13.7744 16.749 13.7744 16.5264V16.4033C13.7744 16.1455 13.8125 15.916 13.8887 15.7148C13.9648 15.5117 14.0684 15.3398 14.1992 15.1992C14.3301 15.0586 14.4785 14.9521 14.6445 14.8799C14.8105 14.8076 14.9824 14.7715 15.1602 14.7715C15.3867 14.7715 15.582 14.8105 15.7461 14.8887C15.9121 14.9668 16.0479 15.0762 16.1533 15.2168C16.2588 15.3555 16.3369 15.5195 16.3877 15.709C16.4385 15.8965 16.4639 16.1016 16.4639 16.3242V16.5674H14.0967V16.125H15.9219V16.084C15.9141 15.9434 15.8848 15.8066 15.834 15.6738C15.7852 15.541 15.707 15.4316 15.5996 15.3457C15.4922 15.2598 15.3457 15.2168 15.1602 15.2168C15.0371 15.2168 14.9238 15.2432 14.8203 15.2959C14.7168 15.3467 14.6279 15.4229 14.5537 15.5244C14.4795 15.626 14.4219 15.75 14.3809 15.8965C14.3398 16.043 14.3193 16.2119 14.3193 16.4033V16.5264C14.3193 16.6768 14.3398 16.8184 14.3809 16.9512C14.4238 17.082 14.4854 17.1973 14.5654 17.2969C14.6475 17.3965 14.7461 17.4746 14.8613 17.5312C14.9785 17.5879 15.1113 17.6162 15.2598 17.6162C15.4512 17.6162 15.6133 17.5771 15.7461 17.499C15.8789 17.4209 15.9951 17.3164 16.0947 17.1855L16.4229 17.4463C16.3545 17.5498 16.2676 17.6484 16.1621 17.7422C16.0566 17.8359 15.9268 17.9121 15.7725 17.9707C15.6201 18.0293 15.4395 18.0586 15.2305 18.0586ZM17.4629 14.8301L18.1572 15.9844L18.8604 14.8301H19.4961L18.459 16.3945L19.5283 18H18.9014L18.1689 16.8105L17.4365 18H16.8066L17.873 16.3945L16.8389 14.8301H17.4629Z" fill="white"/>
<defs>
<linearGradient id="paint0_linear_8_1236" x1="12.5" y1="0" x2="12.5" y2="41.9993" gradientUnits="userSpaceOnUse">
<stop stop-color="#00068A"/>
<stop offset="1" stop-color="#060ED1"/>
</linearGradient>
</defs>
</svg>
