<svg width="27" height="25" viewBox="0 0 27 25" fill="none" xmlns="http://www.w3.org/2000/svg">
<path fill-rule="evenodd" clip-rule="evenodd" d="M2.68504 6.27229C4.98374 3.90809 6.56734 3.61534 7.72888 3.79287C9.1365 4.00802 10.5033 4.95841 12.3481 6.32104L12.5334 6.45804C14.1605 7.66188 16.2174 9.18374 18.6115 9.60776C21.3435 10.0916 24.1044 9.12955 27 6.30807L24.3865 3.62214C22.0751 5.87439 20.4712 6.13 19.2644 5.91625C17.8114 5.65891 16.421 4.66987 14.5728 3.30479L14.4411 3.20743C12.8023 1.99594 10.7219 0.457968 8.2945 0.0869631C5.55553 -0.331666 2.8318 0.745493 0 3.65797L2.68504 6.27229ZM2.68504 14.7963C4.98374 12.4321 6.56734 12.1394 7.72888 12.3169C9.1365 12.532 10.5033 13.4824 12.3481 14.8451L12.5334 14.9821C13.0032 15.3297 13.509 15.7039 14.0483 16.0705V11.4418C12.4746 10.2864 10.5319 8.95296 8.2945 8.61099C5.55553 8.19236 2.8318 9.26952 0 12.182L2.68504 14.7963ZM14.0483 20.3713V25C13.509 24.6334 13.0032 24.2593 12.5334 23.9116L12.3481 23.7746C10.5033 22.412 9.1365 21.4616 7.72888 21.2464C6.56734 21.0689 4.98374 21.3617 2.68504 23.7259L0 21.1115C2.8318 18.1991 5.55553 17.1219 8.2945 17.5405C10.5319 17.8825 12.4746 19.2159 14.0483 20.3713Z" fill="#D75151"/>
</svg>
